HIERARCHY
ROOT hip
{
  OFFSET 0 0 0
  CHANNELS 6 Xposition Yposition Zposition Zrotation Yrotation Xrotation
  JOINT abdomen
  {
    OFFSET 0 20.6881 -0.73152
    CHANNELS 3 Zrotation Xrotation Yrotation
    JOINT chest
    {
      OFFSET 0 11.7043 -0.48768
      CHANNELS 3 Zrotation Xrotation Yrotation
      JOINT neck
      {
        OFFSET 0 22.1894 -2.19456
        CHANNELS 3 Zrotation Xrotation Yrotation
        JOINT head
        {
          OFFSET -0.24384 7.07133 1.2192
          CHANNELS 3 Zrotation Xrotation Yrotation
          JOINT leftEye
          {
            OFFSET 4.14528 8.04674 8.04672
            CHANNELS 3 Zrotation Xrotation Yrotation
            End Site
            {
              OFFSET 1 0 0
            }
          }
          JOINT rightEye
          {
            OFFSET -3.6576 8.04674 8.04672
            CHANNELS 3 Zrotation Xrotation Yrotation
            End Site
            {
              OFFSET 1 0 0
            }
          }
        }
      }
      JOINT rCollar
      {
        OFFSET -2.68224 19.2634 -4.8768
        CHANNELS 3 Zrotation Xrotation Yrotation
        JOINT rShldr
        {
          OFFSET -8.77824 -1.95073 1.46304
          CHANNELS 3 Zrotation Xrotation Yrotation
          JOINT rForeArm
          {
            OFFSET -28.1742 -1.7115 0.48768
            CHANNELS 3 Zrotation Xrotation Yrotation
            JOINT rHand
            {
              OFFSET -22.5879 0.773209 7.07136
              CHANNELS 3 Zrotation Xrotation Yrotation
              JOINT rThumb1
              {
                OFFSET -1.2192 -0.487915 3.41376
                CHANNELS 3 Zrotation Xrotation Yrotation
                JOINT rThumb2
                {
                  OFFSET -3.37035 -0.52449 3.41376
                  CHANNELS 3 Zrotation Xrotation Yrotation
                  End Site
                  {
                    OFFSET -1.78271 -1.18214 1.43049
                  }
                }
              }
              JOINT rIndex1
              {
                OFFSET -7.75947 0.938293 5.60832
                CHANNELS 3 Zrotation Xrotation Yrotation
                JOINT rIndex2
                {
                  OFFSET -2.54057 -0.884171 1.56538
                  CHANNELS 3 Zrotation Xrotation Yrotation
                  End Site
                  {
                    OFFSET -1.62519 -0.234802 1.16502
                  }
                }
              }
              JOINT rMid1
              {
                OFFSET -8.24714 1.18213 3.41376
                CHANNELS 3 Zrotation Xrotation Yrotation
                JOINT rMid2
                {
                  OFFSET -3.10165 -0.590103 1.0647
                  CHANNELS 3 Zrotation Xrotation Yrotation
                  End Site
                  {
                    OFFSET -2.48547 -0.328903 0.83742
                  }
                }
              }
              JOINT rRing1
              {
                OFFSET -8.82822 0.546677 1.51678
                CHANNELS 3 Zrotation Xrotation Yrotation
                JOINT rRing2
                {
                  OFFSET -2.60934 -0.819778 -0.0198488
                  CHANNELS 3 Zrotation Xrotation Yrotation
                  End Site
                  {
                    OFFSET -2.33842 -0.294052 0.168128
                  }
                }
              }
              JOINT rPinky1
              {
                OFFSET -8.27202 -0.0477905 -0.4584
                CHANNELS 3 Zrotation Xrotation Yrotation
                JOINT rPinky2
                {
                  OFFSET -1.82734 -0.647385 -0.700984
                  CHANNELS 3 Zrotation Xrotation Yrotation
                  End Site
                  {
                    OFFSET -1.69225 -0.51767 -0.607171
                  }
                }
              }
            }
          }
        }
      }
      JOINT lCollar
      {
        OFFSET 2.68224 19.2634 -4.8768
        CHANNELS 3 Zrotation Xrotation Yrotation
        JOINT lShldr
        {
          OFFSET 8.77824 -1.95073 1.46304
          CHANNELS 3 Zrotation Xrotation Yrotation
          JOINT lForeArm
          {
            OFFSET 28.1742 -1.7115 0.48768
            CHANNELS 3 Zrotation Xrotation Yrotation
            JOINT lHand
            {
              OFFSET 22.5879 0.773209 7.07136
              CHANNELS 3 Zrotation Xrotation Yrotation
              JOINT lThumb1
              {
                OFFSET 1.2192 -0.487915 3.41376
                CHANNELS 3 Zrotation Xrotation Yrotation
                JOINT lThumb2
                {
                  OFFSET 3.37035 -0.52449 3.41376
                  CHANNELS 3 Zrotation Xrotation Yrotation
                  End Site
                  {
                    OFFSET 1.78271 -1.18214 1.43049
                  }
                }
              }
              JOINT lIndex1
              {
                OFFSET 7.75947 0.938293 5.60832
                CHANNELS 3 Zrotation Xrotation Yrotation
                JOINT lIndex2
                {
                  OFFSET 2.54057 -0.884171 1.56538
                  CHANNELS 3 Zrotation Xrotation Yrotation
                  End Site
                  {
                    OFFSET 1.62519 -0.234802 1.16502
                  }
                }
              }
              JOINT lMid1
              {
                OFFSET 8.24714 1.18213 3.41376
                CHANNELS 3 Zrotation Xrotation Yrotation
                JOINT lMid2
                {
                  OFFSET 3.10165 -0.590103 1.0647
                  CHANNELS 3 Zrotation Xrotation Yrotation
                  End Site
                  {
                    OFFSET 2.48547 -0.328903 0.83742
                  }
                }
              }
              JOINT lRing1
              {
                OFFSET 8.82822 0.546677 1.51678
                CHANNELS 3 Zrotation Xrotation Yrotation
                JOINT lRing2
                {
                  OFFSET 2.60934 -0.819778 -0.0198488
                  CHANNELS 3 Zrotation Xrotation Yrotation
                  End Site
                  {
                    OFFSET 2.33842 -0.294052 0.168128
                  }
                }
              }
              JOINT lPinky1
              {
                OFFSET 8.27202 -0.0477905 -0.4584
                CHANNELS 3 Zrotation Xrotation Yrotation
                JOINT lPinky2
                {
                  OFFSET 1.82734 -0.647385 -0.700984
                  CHANNELS 3 Zrotation Xrotation Yrotation
                  End Site
                  {
                    OFFSET 1.69225 -0.51767 -0.607171
                  }
                }
              }
            }
          }
        }
      }
    }
  }
  JOINT rButtock
  {
    OFFSET -8.77824 4.35084 1.2192
    CHANNELS 3 Zrotation Xrotation Yrotation
    JOINT rThigh
    {
      OFFSET 0 -1.70687 -2.19456
      CHANNELS 3 Zrotation Xrotation Yrotation
      JOINT rShin
      {
        OFFSET 0 -36.8199 0.73152
        CHANNELS 3 Zrotation Xrotation Yrotation
        JOINT rFoot
        {
          OFFSET 0.73152 -45.1104 -5.12064
          CHANNELS 3 Zrotation Xrotation Yrotation
          End Site
          {
            OFFSET -1.1221 -3.69964 12.103
          }
        }
      }
    }
  }
  JOINT lButtock
  {
    OFFSET 8.77824 4.35084 1.2192
    CHANNELS 3 Zrotation Xrotation Yrotation
    JOINT lThigh
    {
      OFFSET 0 -1.70687 -2.19456
      CHANNELS 3 Zrotation Xrotation Yrotation
      JOINT lShin
      {
        OFFSET 0 -36.8199 0.73152
        CHANNELS 3 Zrotation Xrotation Yrotation
        JOINT lFoot
        {
          OFFSET -0.73152 -45.1104 -5.12064
          CHANNELS 3 Zrotation Xrotation Yrotation
          End Site
          {
            OFFSET 1.1221 -3.69964 12.103
          }
        }
      }
    }
  }
}
MOTION
Frames:	9
Frame Time:	0.00833333
113.421 85.1388 222.034 0.0 0.0 0.0 0.410589 -0.00336422 0.0117806 0.113459 -0.00539517 0.0196593 1.06443e-14 0.0 -4.96961e-17 3.20043e-14 3.18055e-15 -1.33558e-16 -0.0 0.0 0.0 -0.0 0.0 0.0 5.41576e-15 4.27076e-18 1.49089e-16 1.12914e-13 0.0 5.96354e-16 1.93184e-12 -5.76078e-13 -1.90833e-14 2.20848e-11 5.81346e-13 -8.26944e-14 5.20964e-11 1.32615e-14 -2.16278e-13 8.99513e-11 2.54444e-14 -3.7292e-13 5.21003e-11 1.47101e-14 -2.29e-13 7.73091 5.47488 0.417314 5.20961e-11 1.27222e-14 -2.13097e-13 2.90554 0.965183 0.102902 5.21008e-11 1.32192e-14 -2.11507e-13 10.2786 0.731801 0.0259123 5.20879e-11 1.59028e-14 -2.00375e-13 2.22167 -0.733487 -0.20892 5.21957e-15 4.27076e-18 -2.48481e-16 1.10585e-13 -7.45443e-17 -5.96354e-16 1.92712e-12 5.78463e-13 -3.18055e-14 2.2088e-11 -5.74711e-13 -4.45278e-14 5.21003e-11 7.42609e-15 -2.00375e-13 8.9991e-11 1.59028e-14 -3.53837e-13 5.20959e-11 6.75868e-15 -1.94014e-13 -7.73091 5.47488 -0.417314 5.21001e-11 7.45443e-15 -2.06736e-13 -2.90554 0.965183 -0.102902 5.20971e-11 7.25564e-15 -2.05146e-13 -10.2786 0.731801 -0.0259123 5.21058e-11 7.95139e-15 -2.19458e-13 -2.22167 -0.733487 0.20892 -2.03217e-16 0.0 -3.88251e-19 0.770626 -4.17183 -0.0656823 -0.00265502 2.00554 -0.0182716 -0.461851 2.16688 0.0961038 2.03217e-16 0.0 3.88251e-19 -0.143214 -2.55995 0.026068 0.00716305 -0.914088 0.0621705 0.453752 3.47457 -0.121222
113.785 83.5853 216.233 178.477 -2.377 -154.39 -1.5961 -8.79092 -0.620618 0.857072 3.45584 -0.261214 0.795757 3.62537 -0.329577 0.0545414 -7.95696 -0.693968 -0.0 0.0 0.0 -0.0 0.0 0.0 -2.55094e-14 -6.88947e-14 -2.52208e-14 23.0955 2.78604 -0.377029 -4.58297 -2.16008 7.0719 0.000301435 -0.392876 -0.0552107 8.14956e-10 -1.20056e-09 5.75885e-10 1.4091e-09 -2.07644e-09 9.95199e-10 8.14959e-10 -1.20055e-09 5.75874e-10 7.73091 5.47488 0.417314 8.14955e-10 -1.20056e-09 5.75887e-10 2.90554 0.965183 0.102902 8.1496e-10 -1.20055e-09 5.75888e-10 10.2786 0.731801 0.0259123 8.14949e-10 -1.20055e-09 5.75898e-10 2.22167 -0.733487 -0.20892 -2.57104e-14 -6.88945e-14 -2.55764e-14 -21.0804 7.31584 -1.76122 3.85236 -1.6832 -6.08795 -0.00187863 0.992458 -0.139412 9.6887e-10 3.73181e-10 -2.47377e-10 1.67341e-09 6.42803e-10 -4.30839e-10 9.68866e-10 3.73182e-10 -2.47371e-10 -7.73091 5.47488 -0.417314 9.68867e-10 3.7318e-10 -2.47383e-10 -2.90554 0.965183 -0.102902 9.68866e-10 3.73181e-10 -2.47382e-10 -10.2786 0.731801 -0.0259123 9.68874e-10 3.73182e-10 -2.47396e-10 -2.22167 -0.733487 0.20892 -2.03217e-16 0.0 -3.88251e-19 0.288959 -9.89745 1.73218 0.00187205 3.352 0.0312381 -0.664515 -2.60841 -2.43737 2.03217e-16 0.0 3.88251e-19 -0.324146 -8.68268 -2.28242 0.00544912 0.888692 0.0280972 0.455796 1.46032 -0.0502254
113.892 83.4226 216.408 178.672 -1.6629 -153.593 -3.93896 -18.0562 -1.34935 1.67977 7.11061 -0.563196 1.67735 7.47267 -0.682661 -0.0991439 -16.3954 -1.4714 -0.0 0.0 0.0 -0.0 0.0 0.0 -6.05526e-14 -1.46354e-13 -5.39203e-14 47.5495 5.72671 -0.779283 -8.85073 -4.33237 14.5769 -0.000207594 -0.799241 -0.112326 1.67378e-09 -2.55671e-09 1.24142e-09 2.89419e-09 -4.42197e-09 2.14539e-09 1.67378e-09 -2.55671e-09 1.24142e-09 7.73091 5.47488 0.417314 1.67377e-09 -2.55671e-09 1.24142e-09 2.90554 0.965183 0.102902 1.67378e-09 -2.55671e-09 1.24143e-09 10.2786 0.731801 0.0259123 1.67377e-09 -2.55671e-09 1.24143e-09 2.22167 -0.733487 -0.20892 -6.07597e-14 -1.46354e-13 -5.42309e-14 -42.8614 15.0299 -3.71863 7.53771 -3.39885 -12.5396 0.00150458 2.06999 -0.290921 1.99641e-09 7.7356e-10 -5.45952e-10 3.44809e-09 1.33228e-09 -9.50575e-10 1.99641e-09 7.73561e-10 -5.45945e-10 -7.73091 5.47488 -0.417314 1.99641e-09 7.73558e-10 -5.45958e-10 -2.90554 0.965183 -0.102902 1.99641e-09 7.7356e-10 -5.45957e-10 -10.2786 0.731801 -0.0259123 1.99641e-09 7.7356e-10 -5.45969e-10 -2.22167 -0.733487 0.20892 -2.03217e-16 0.0 -3.88251e-19 0.180631 -15.9043 3.71799 0.00411929 4.76815 0.0836613 -1.34241 -7.62846 -5.1676 2.03217e-16 0.0 3.88251e-19 -1.07497 -15.1013 -4.84884 0.00585436 2.79535 -0.00795206 0.463373 -0.668759 0.0241556
113.761 83.485 216.322 178.38 -2.2146 -153.982 -6.24844 -26.3525 -2.07975 2.44752 10.3773 -0.835199 2.51434 10.8747 -1.0048 -0.460403 -23.8562 -2.25457 -0.0 0.0 0.0 -0.0 0.0 0.0 -8.73596e-14 -2.06693e-13 -7.59606e-14 69.3976 8.35668 -1.14188 -12.1823 -6.08619 21.3266 -0.00136757 -1.17862 -0.165663 2.34067e-09 -3.60169e-09 1.72809e-09 4.04741e-09 -6.22938e-09 2.98634e-09 2.34068e-09 -3.60169e-09 1.72808e-09 7.73091 5.47488 0.417314 2.34067e-09 -3.60169e-09 1.72809e-09 2.90554 0.965183 0.102902 2.34068e-09 -3.60169e-09 1.72809e-09 10.2786 0.731801 0.0259123 2.34067e-09 -3.60169e-09 1.72809e-09 2.22167 -0.733487 -0.20892 -8.75704e-14 -2.06692e-13 -7.62324e-14 -61.8051 21.8613 -5.64795 10.501 -4.82201 -18.3231 0.00886969 2.9773 -0.418737 2.80241e-09 1.11953e-09 -7.41731e-10 4.84026e-09 1.92838e-09 -1.29181e-09 2.8024e-09 1.11953e-09 -7.41724e-10 -7.73091 5.47488 -0.417314 2.8024e-09 1.11953e-09 -7.41737e-10 -2.90554 0.965183 -0.102902 2.8024e-09 1.11953e-09 -7.41736e-10 -10.2786 0.731801 -0.0259123 2.80241e-09 1.11953e-09 -7.41748e-10 -2.22167 -0.733487 0.20892 -2.03217e-16 0.0 -3.88251e-19 0.472361 -21.268 5.63509 0.00391002 6.04491 0.130802 -2.35528 -12.0605 -7.66682 2.03217e-16 0.0 3.88251e-19 -2.25275 -20.7933 -7.29854 0.00845971 4.49425 -0.0401673 0.474836 -2.56819 0.0914628
113.726 83.4964 216.321 178.286 -2.3607 -154.049 -7.99362 -32.24 -2.62724 3.00372 12.6749 -1.02045 3.14837 13.1648 -1.23393 -0.883185 -28.8866 -2.88664 -0.0 0.0 0.0 -0.0 0.0 0.0 -9.35762e-14 -2.2423e-13 -8.13526e-14 84.6523 10.2113 -1.39508 -14.262 -7.16778 26.0827 -0.0027256 -1.49055 -0.209531 2.52777e-09 -3.86874e-09 1.76756e-09 4.37092e-09 -6.69147e-09 3.05418e-09 2.52777e-09 -3.86874e-09 1.76756e-09 7.73091 5.47488 0.417314 2.52777e-09 -3.86874e-09 1.76756e-09 2.90554 0.965183 0.102902 2.52777e-09 -3.86874e-09 1.76756e-09 10.2786 0.731801 0.0259123 2.52776e-09 -3.86874e-09 1.76757e-09 2.22167 -0.733487 -0.20892 -9.37846e-14 -2.24229e-13 -8.16011e-14 -74.6965 26.567 -7.16205 12.3963 -5.73044 -22.3795 0.0146981 3.45916 -0.486751 3.05454e-09 1.32948e-09 -6.80521e-10 5.27617e-09 2.29101e-09 -1.18679e-09 3.05454e-09 1.32948e-09 -6.80515e-10 -7.73091 5.47488 -0.417314 3.05453e-09 1.32947e-09 -6.80527e-10 -2.90554 0.965183 -0.102902 3.05454e-09 1.32948e-09 -6.80527e-10 -10.2786 0.731801 -0.0259123 3.05455e-09 1.32947e-09 -6.80537e-10 -2.22167 -0.733487 0.20892 -2.03217e-16 0.0 -3.88251e-19 0.946685 -25.0967 7.11349 0.00244065 6.97321 0.164283 -3.28328 -15.1218 -9.4204 2.03217e-16 0.0 3.88251e-19 -3.35779 -24.7966 -9.0927 0.0120083 5.67376 -0.0626135 0.485637 -3.89352 0.141048
113.779 83.4439 216.387 178.405 -2.0871 -153.818 -8.67414 -34.7803 -2.74061 3.22749 13.6195 -1.07041 3.46856 13.8605 -1.31622 -1.15786 -30.4638 -3.16806 -0.0 0.0 0.0 -0.0 0.0 0.0 -6.49848e-14 -1.63583e-13 -5.78859e-14 90.6483 10.9854 -1.48725 -15.0456 -7.57012 28.0007 -0.00381493 -1.72673 -0.242753 1.89912e-09 -2.78278e-09 9.81215e-10 3.2838e-09 -4.81387e-09 1.69418e-09 1.89912e-09 -2.78278e-09 9.81209e-10 7.73091 5.47488 0.417314 1.89912e-09 -2.78278e-09 9.8121e-10 2.90554 0.965183 0.102902 1.89912e-09 -2.78278e-09 9.81211e-10 10.2786 0.731801 0.0259123 1.89912e-09 -2.78278e-09 9.81217e-10 2.22167 -0.733487 -0.20892 -6.51799e-14 -1.63582e-13 -5.81305e-14 -79.6452 28.3586 -7.83605 13.1103 -6.06971 -23.9909 0.0134616 3.30012 -0.464316 2.36378e-09 1.36441e-09 -9.96888e-11 4.08439e-09 2.35406e-09 -1.80152e-10 2.36378e-09 1.36441e-09 -9.96828e-11 -7.73091 5.47488 -0.417314 2.36377e-09 1.36441e-09 -9.96968e-11 -2.90554 0.965183 -0.102902 2.36377e-09 1.36441e-09 -9.96942e-11 -10.2786 0.731801 -0.0259123 2.36378e-09 1.36441e-09 -9.97032e-11 -2.22167 -0.733487 0.20892 -2.03217e-16 0.0 -3.88251e-19 1.27948 -26.8457 7.79937 0.00124351 7.42132 0.178445 -3.66028 -16.3449 -9.98181 2.03217e-16 0.0 3.88251e-19 -3.78281 -26.5357 -9.69285 0.0152764 6.11887 -0.0711061 0.491189 -4.41762 0.168263
113.909 83.3379 216.534 178.71 -1.4401 -153.216 -8.52321 -34.9316 -2.49452 3.2062 13.5977 -1.02156 3.55474 13.4195 -1.29093 -1.26043 -29.5809 -3.15832 -0.0 0.0 0.0 -0.0 0.0 0.0 -1.18156e-14 -4.79583e-14 -1.40702e-14 90.0222 10.9878 -1.46225 -15.002 -7.56149 27.8761 -0.0045952 -1.90792 -0.268243 6.94653e-10 -7.42947e-10 -3.85499e-10 1.20092e-09 -1.28679e-09 -6.69249e-10 6.94655e-10 -7.42943e-10 -3.85504e-10 7.73091 5.47488 0.417314 6.94652e-10 -7.42944e-10 -3.85504e-10 2.90554 0.965183 0.102902 6.94659e-10 -7.42944e-10 -3.85502e-10 10.2786 0.731801 0.0259123 6.9465e-10 -7.42944e-10 -3.85497e-10 2.22167 -0.733487 -0.20892 -1.19897e-14 -4.79569e-14 -1.43249e-14 -79.0655 28.0888 -7.82386 13.0493 -6.0453 -23.8466 0.00809979 2.68544 -0.377653 1.00749e-09 1.2736e-09 8.44691e-10 1.74371e-09 2.20182e-09 1.45733e-09 1.00749e-09 1.27361e-09 8.44696e-10 -7.73091 5.47488 -0.417314 1.00748e-09 1.2736e-09 8.4468e-10 -2.90554 0.965183 -0.102902 1.00748e-09 1.27361e-09 8.44686e-10 -10.2786 0.731801 -0.0259123 1.00749e-09 1.27361e-09 8.44678e-10 -2.22167 -0.733487 0.20892 -2.03217e-16 0.0 -3.88251e-19 1.39842 -27.1256 7.8574 0.00080106 7.52606 0.178719 -3.54498 -16.2752 -9.65489 2.03217e-16 0.0 3.88251e-19 -3.57816 -26.6835 -9.36085 0.0178568 6.03975 -0.0695799 0.491796 -4.36929 0.17926
113.894 83.3135 216.574 178.629 -1.45 -153.088 -8.05873 -34.1031 -2.1436 3.0912 13.1843 -0.941887 3.52874 12.5857 -1.23192 -1.27795 -27.8125 -3.04478 -0.0 0.0 0.0 -0.0 0.0 0.0 4.1615e-14 6.04353e-14 2.90031e-14 86.7347 10.6751 -1.39139 -14.6194 -7.38146 26.9126 -0.00512279 -2.03721 -0.286433 -5.09713e-10 1.25618e-09 -1.66474e-09 -8.81726e-10 2.17008e-09 -2.88128e-09 -5.09711e-10 1.25619e-09 -1.66474e-09 7.73091 5.47488 0.417314 -5.09714e-10 1.25619e-09 -1.66474e-09 2.90554 0.965183 0.102902 -5.09707e-10 1.25618e-09 -1.66474e-09 10.2786 0.731801 0.0259123 -5.09716e-10 1.25618e-09 -1.66473e-09 2.22167 -0.733487 -0.20892 4.1461e-14 6.04371e-14 2.8729e-14 -76.2887 26.9967 -7.52088 12.6734 -5.87174 -22.989 0.00397658 1.96098 -0.275674 -3.47022e-10 1.10782e-09 1.67875e-09 -5.94204e-10 1.91985e-09 2.90414e-09 -3.47023e-10 1.10783e-09 1.67875e-09 -7.73091 5.47488 -0.417314 -3.47034e-10 1.10782e-09 1.67874e-09 -2.90554 0.965183 -0.102902 -3.47027e-10 1.10783e-09 1.67874e-09 -10.2786 0.731801 -0.0259123 -3.47018e-10 1.10783e-09 1.67874e-09 -2.22167 -0.733487 0.20892 -2.03217e-16 0.0 -3.88251e-19 1.40502 -26.7922 7.6437 0.000959773 7.48126 0.173286 -3.24725 -15.6741 -9.00607 2.03217e-16 0.0 3.88251e-19 -3.14209 -26.181 -8.68051 0.0194858 5.76254 -0.0642025 0.489779 -4.08798 0.179425
113.893 83.2976 216.607 178.608 -1.4225 -152.987 -7.78399 -33.7061 -1.93658 3.03284 12.9543 -0.899258 3.51019 12.1032 -1.21215 -1.29301 -26.733 -3.00921 -0.0 0.0 0.0 -0.0 0.0 0.0 7.09905e-14 9.93908e-14 5.02428e-14 84.747 10.5039 -1.34609 -14.3768 -7.26251 26.3152 -0.00550321 -2.11768 -0.297757 -1.13807e-09 2.22004e-09 -2.18866e-09 -1.96817e-09 3.83702e-09 -3.7871e-09 -1.13806e-09 2.22004e-09 -2.18867e-09 7.73091 5.47488 0.417314 -1.13807e-09 2.22004e-09 -2.18867e-09 2.90554 0.965183 0.102902 -1.13806e-09 2.22004e-09 -2.18867e-09 10.2786 0.731801 0.0259123 -1.13807e-09 2.22004e-09 -2.18866e-09 2.22167 -0.733487 -0.20892 7.0847e-14 9.93931e-14 4.99446e-14 -74.6352 26.3191 -7.32779 12.438 -5.76055 -22.4608 0.00266045 1.47262 -0.20701 -1.03244e-09 9.17838e-10 1.92862e-09 -1.77771e-09 1.59372e-09 3.33878e-09 -1.03245e-09 9.17839e-10 1.92862e-09 -7.73091 5.47488 -0.417314 -1.03245e-09 9.17836e-10 1.9286e-09 -2.90554 0.965183 -0.102902 -1.03245e-09 9.17841e-10 1.92861e-09 -10.2786 0.731801 -0.0259123 -1.03244e-09 9.17842e-10 1.92861e-09 -2.22167 -0.733487 0.20892 -2.03217e-16 0.0 -3.88251e-19 1.42646 -26.6971 7.52979 0.00143809 7.48071 0.170355 -3.07009 -15.3068 -8.60107 2.03217e-16 0.0 3.88251e-19 -2.87497 -25.9724 -8.24095 0.0198948 5.61339 -0.0611408 0.487856 -3.91313 0.174176
